
<svg version="1.0" xmlns="http://www.w3.org/2000/svg"
 width="5rem" height="5rem" viewBox="0 0 1175.000000 1285.000000"
 preserveAspectRatio="xMidYMid meet">
<g transform="translate(0.000000,1280.000000) scale(0.100000,-0.100000)"
fill="rgb(105, 28, 199)" stroke="none">
<path d="M11600 12784 c-1943 -230 -4123 -733 -5725 -1321 -1953 -717 -3322
-1559 -4205 -2588 -871 -1015 -1421 -2103 -1600 -3167 -53 -314 -64 -453 -64
-803 0 -342 10 -473 60 -770 183 -1095 779 -2130 1689 -2937 1257 -1114 3101
-1490 4691 -959 875 292 1591 828 2090 1566 479 706 769 1654 883 2880 40 426
46 585 46 1235 0 547 -4 690 -24 1030 -43 729 -18 1236 90 1830 78 425 199
854 357 1260 374 964 974 1887 1691 2598 90 89 157 161 150 161 -8 -1 -66 -8
-129 -15z"/>
</g>
</svg>
